<svg width="28" height="28" viewBox="0 0 28 28" fill="none" xmlns="http://www.w3.org/2000/svg">
<path fill-rule="evenodd" clip-rule="evenodd" d="M7.6 3.7C7.69443 3.5741 7.84262 3.5 8 3.5H20C20.1574 3.5 20.3056 3.5741 20.4 3.7L23.4 7.7C23.4649 7.78655 23.5 7.89182 23.5 8V22C23.5 22.663 23.2366 23.2989 22.7678 23.7678C22.2989 24.2366 21.663 24.5 21 24.5H7C6.33696 24.5 5.70107 24.2366 5.23223 23.7678C4.76339 23.2989 4.5 22.663 4.5 22V8C4.5 7.89182 4.53509 7.78655 4.6 7.7L7.6 3.7ZM8.25 4.5L6 7.5H22L19.75 4.5H8.25ZM22.5 8.5H5.5V22C5.5 22.3978 5.65804 22.7794 5.93934 23.0607C6.22064 23.342 6.60218 23.5 7 23.5H21C21.3978 23.5 21.7794 23.342 22.0607 23.0607C22.342 22.7794 22.5 22.3978 22.5 22V8.5ZM10 11.5C10.2761 11.5 10.5 11.7239 10.5 12C10.5 12.9283 10.8687 13.8185 11.5251 14.4749C12.1815 15.1313 13.0717 15.5 14 15.5C14.9283 15.5 15.8185 15.1313 16.4749 14.4749C17.1313 13.8185 17.5 12.9283 17.5 12C17.5 11.7239 17.7239 11.5 18 11.5C18.2761 11.5 18.5 11.7239 18.5 12C18.5 13.1935 18.0259 14.3381 17.182 15.182C16.3381 16.0259 15.1935 16.5 14 16.5C12.8065 16.5 11.6619 16.0259 10.818 15.182C9.97411 14.3381 9.5 13.1935 9.5 12C9.5 11.7239 9.72386 11.5 10 11.5Z" fill="var(--fill-svg, #000000)"/>
</svg>
