<svg width="24" height="24" viewBox="0 0 24 24" fill="none" xmlns="http://www.w3.org/2000/svg">
<path fill-rule="evenodd" clip-rule="evenodd" d="M8.14282 6.85716C8.14282 6.62047 8.3347 6.42859 8.57139 6.42859H19.7143C19.9509 6.42859 20.1428 6.62047 20.1428 6.85716C20.1428 7.09385 19.9509 7.28573 19.7143 7.28573H8.57139C8.3347 7.28573 8.14282 7.09385 8.14282 6.85716ZM8.14282 12C8.14282 11.7633 8.3347 11.5714 8.57139 11.5714H19.7143C19.9509 11.5714 20.1428 11.7633 20.1428 12C20.1428 12.2367 19.9509 12.4286 19.7143 12.4286H8.57139C8.3347 12.4286 8.14282 12.2367 8.14282 12ZM8.14282 17.1429C8.14282 16.9062 8.3347 16.7143 8.57139 16.7143H19.7143C19.9509 16.7143 20.1428 16.9062 20.1428 17.1429C20.1428 17.3796 19.9509 17.5714 19.7143 17.5714H8.57139C8.3347 17.5714 8.14282 17.3796 8.14282 17.1429Z" fill="white"/>
<path fill-rule="evenodd" clip-rule="evenodd" d="M5.14275 6.85714C5.14275 7.33053 4.759 7.71429 4.28561 7.71429C3.81222 7.71429 3.42847 7.33053 3.42847 6.85714C3.42847 6.38376 3.81222 6 4.28561 6C4.759 6 5.14275 6.38376 5.14275 6.85714ZM5.14275 12C5.14275 12.4734 4.759 12.8571 4.28561 12.8571C3.81222 12.8571 3.42847 12.4734 3.42847 12C3.42847 11.5266 3.81222 11.1429 4.28561 11.1429C4.759 11.1429 5.14275 11.5266 5.14275 12ZM4.28561 18C4.759 18 5.14275 17.6162 5.14275 17.1429C5.14275 16.6695 4.759 16.2857 4.28561 16.2857C3.81222 16.2857 3.42847 16.6695 3.42847 17.1429C3.42847 17.6162 3.81222 18 4.28561 18Z" fill="white"/>
</svg>
