<svg width="28" height="28" viewBox="0 0 28 28" fill="none" xmlns="http://www.w3.org/2000/svg">
<path fill-rule="evenodd" clip-rule="evenodd" d="M7.64645 7.64645C7.84171 7.45118 8.15829 7.45118 8.35355 7.64645L14 13.2929L19.6464 7.64645C19.8417 7.45118 20.1583 7.45118 20.3536 7.64645C20.5488 7.84171 20.5488 8.15829 20.3536 8.35355L14.7071 14L20.3536 19.6464C20.5488 19.8417 20.5488 20.1583 20.3536 20.3536C20.1583 20.5488 19.8417 20.5488 19.6464 20.3536L14 14.7071L8.35355 20.3536C8.15829 20.5488 7.84171 20.5488 7.64645 20.3536C7.45118 20.1583 7.45118 19.8417 7.64645 19.6464L13.2929 14L7.64645 8.35355C7.45118 8.15829 7.45118 7.84171 7.64645 7.64645Z" fill="black" fill-opacity="0.6"/>
</svg>
