<svg width="20" height="20" viewBox="0 0 20 20" fill="none" xmlns="http://www.w3.org/2000/svg">
<path fill-rule="evenodd" clip-rule="evenodd" d="M10.427 0.27841C10.3468 0.107928 10.1812 0 10 0C9.81875 0 9.65322 0.107928 9.573 0.27841L6.74083 6.29694L0.407333 7.26799C0.228019 7.29548 0.079124 7.42735 0.02323 7.60818C-0.0326641 7.789 0.0141325 7.98743 0.14395 8.12006L4.72643 12.8019L3.64496 19.4161C3.61432 19.6035 3.68777 19.7929 3.83442 19.9046C3.98108 20.0164 4.1755 20.0311 4.33594 19.9426L10 16.8181L15.6641 19.9426C15.8245 20.0311 16.0189 20.0164 16.1656 19.9046C16.3122 19.7929 16.3857 19.6035 16.355 19.4161L15.2736 12.8019L19.8561 8.12006C19.9859 7.98743 20.0327 7.789 19.9768 7.60818C19.9209 7.42735 19.772 7.29548 19.5927 7.26799L13.2592 6.29694L10.427 0.27841Z" stroke-width="1" stroke="var(--stroke-svg, rgba(0, 0, 0, 0.3))" fill="var(--fill-svg, #ffffff)"/>
</svg>
