<svg width="24" height="24" viewBox="0 0 24 24" fill="none" xmlns="http://www.w3.org/2000/svg">
<path d="M22.2692 7.26888C22.2173 6.13346 22.0369 5.35807 21.7733 4.67969C21.5055 3.96794 21.0856 3.32324 20.543 2.79036C20.0103 2.24772 19.3654 1.82764 18.6536 1.55973C17.9751 1.29622 17.1999 1.11605 16.0645 1.06445C14.9269 1.01237 14.5635 1 11.6667 1C8.76986 1 8.40641 1.01237 7.26888 1.06413C6.13346 1.11605 5.35824 1.29639 4.67969 1.56006C3.96794 1.8278 3.32324 2.24772 2.79036 2.79036C2.24772 3.32308 1.82764 3.96777 1.55973 4.67952C1.29622 5.35807 1.11605 6.13346 1.06445 7.26872C1.01237 8.40641 1 8.76969 1 11.6665C1 14.5635 1.01237 14.9269 1.06445 16.0645C1.11621 17.1997 1.29655 17.9751 1.56022 18.6536C1.82796 19.3652 2.24788 20.0101 2.79053 20.5428C3.32324 21.0854 3.9681 21.5054 4.67985 21.7731C5.35824 22.0369 6.13363 22.2171 7.26904 22.269C8.40674 22.321 8.77002 22.3332 11.6668 22.3332C14.5636 22.3332 14.9271 22.321 16.0646 22.269C17.2 22.2171 17.9753 22.0369 18.6538 21.7731C20.0866 21.2191 21.2192 20.0864 21.7733 18.6536C22.0371 17.9751 22.2173 17.1997 22.2692 16.0645C22.321 14.9268 22.3333 14.5635 22.3333 11.6667C22.3333 8.76969 22.321 8.40641 22.2692 7.26888ZM20.3491 15.9771C20.3018 17.0171 20.1279 17.5819 19.9819 17.9577C19.623 18.888 18.8879 19.6232 17.9575 19.9821C17.5817 20.1281 17.0169 20.3019 15.9769 20.3493C14.8524 20.4007 14.515 20.4115 11.6667 20.4115C8.8182 20.4115 8.48096 20.4007 7.35628 20.3493C6.31641 20.3019 5.75163 20.1281 5.37565 19.9821C4.91244 19.811 4.49333 19.5384 4.14925 19.1841C3.79492 18.84 3.5223 18.4211 3.35124 17.9577C3.20524 17.5819 3.03141 17.0171 2.98405 15.9771C2.93278 14.8524 2.92188 14.515 2.92188 11.6668C2.92188 8.81852 2.93278 8.48128 2.98405 7.35645C3.03158 6.31641 3.20524 5.75163 3.35124 5.37581C3.5223 4.91244 3.79508 4.49333 4.14925 4.14925C4.49333 3.79492 4.91244 3.5223 5.37581 3.3514C5.75163 3.20524 6.31641 3.03158 7.35645 2.98405C8.48112 2.93278 8.81852 2.92188 11.6667 2.92188H11.6665C14.5146 2.92188 14.8521 2.93278 15.9769 2.98421C17.0169 3.03158 17.5815 3.2054 17.9575 3.3514C18.4207 3.52246 18.8398 3.79508 19.1839 4.14925C19.5382 4.49333 19.8109 4.91244 19.9818 5.37581C20.1279 5.75163 20.3018 6.31641 20.3491 7.35645C20.4004 8.48112 20.4113 8.81852 20.4113 11.6667C20.4113 14.515 20.4006 14.8522 20.3491 15.9771Z" fill="white"/>
<path d="M11.6665 6.18945C8.6414 6.18945 6.18909 8.64193 6.18909 11.667C6.18909 14.6921 8.6414 17.1444 11.6665 17.1444C14.6917 17.1444 17.144 14.6921 17.144 11.667C17.144 8.64193 14.6917 6.18945 11.6665 6.18945ZM11.6665 15.2225C9.70292 15.2223 8.11096 13.6305 8.11112 11.6668C8.11112 9.70329 9.70292 8.11133 11.6666 8.11133C13.6303 8.11149 15.2221 9.70329 15.2221 11.6668C15.2221 13.6305 13.6302 15.2225 11.6665 15.2225Z" fill="white"/>
<path d="M18.6405 5.97298C18.6405 6.67985 18.0674 7.25293 17.3606 7.25293C16.6535 7.25293 16.0804 6.67985 16.0804 5.97298C16.0804 5.26595 16.6535 4.69287 17.3606 4.69287C18.0674 4.69287 18.6405 5.26595 18.6405 5.97298Z" fill="white"/>
</svg>
