<svg width="28" height="28" viewBox="0 0 28 28" fill="none" xmlns="http://www.w3.org/2000/svg">
<path fill-rule="evenodd" clip-rule="evenodd" d="M9.5 8C9.5 7.72386 9.72386 7.5 10 7.5H23C23.2761 7.5 23.5 7.72386 23.5 8C23.5 8.27614 23.2761 8.5 23 8.5H10C9.72386 8.5 9.5 8.27614 9.5 8ZM9.5 14C9.5 13.7239 9.72386 13.5 10 13.5H23C23.2761 13.5 23.5 13.7239 23.5 14C23.5 14.2761 23.2761 14.5 23 14.5H10C9.72386 14.5 9.5 14.2761 9.5 14ZM9.5 20C9.5 19.7239 9.72386 19.5 10 19.5H23C23.2761 19.5 23.5 19.7239 23.5 20C23.5 20.2761 23.2761 20.5 23 20.5H10C9.72386 20.5 9.5 20.2761 9.5 20Z" fill="black"/>
<path fill-rule="evenodd" clip-rule="evenodd" d="M6 8C6 8.55228 5.55228 9 5 9C4.44772 9 4 8.55228 4 8C4 7.44772 4.44772 7 5 7C5.55228 7 6 7.44772 6 8ZM6 14C6 14.5523 5.55228 15 5 15C4.44772 15 4 14.5523 4 14C4 13.4477 4.44772 13 5 13C5.55228 13 6 13.4477 6 14ZM5 21C5.55228 21 6 20.5523 6 20C6 19.4477 5.55228 19 5 19C4.44772 19 4 19.4477 4 20C4 20.5523 4.44772 21 5 21Z" fill="black"/>
</svg>
