<svg width="24" height="24" viewBox="0 0 24 24" fill="none" xmlns="http://www.w3.org/2000/svg">
<path fill-rule="evenodd" clip-rule="evenodd" d="M12 3.00003C10.0677 3.00003 8.21459 3.76763 6.84826 5.13396C5.48192 6.5003 4.71432 8.35345 4.71432 10.2857C4.71432 13.1135 6.54249 15.7947 8.45401 17.8124C9.40101 18.812 10.3495 19.6289 11.0616 20.196C11.4174 20.4793 11.7133 20.6996 11.9195 20.8485C11.9481 20.8691 11.975 20.8884 12 20.9063C12.0251 20.8884 12.052 20.8691 12.0806 20.8485C12.2867 20.6996 12.5827 20.4793 12.9384 20.196C13.6506 19.6289 14.5991 18.812 15.5461 17.8124C17.4576 15.7947 19.2857 13.1135 19.2857 10.2857C19.2857 8.35345 18.5181 6.5003 17.1518 5.13396C15.7855 3.76763 13.9323 3.00003 12 3.00003ZM12 21.4286C11.7623 21.7852 11.7622 21.7851 11.762 21.785L11.7616 21.7847L11.7601 21.7837L11.7552 21.7804L11.7371 21.7682C11.7215 21.7576 11.6987 21.742 11.6694 21.7217C11.6107 21.681 11.5255 21.6212 11.4176 21.5433C11.2019 21.3875 10.8952 21.1591 10.5277 20.8665C9.79346 20.2819 8.81334 19.438 7.83177 18.4019C5.88615 16.3482 3.85718 13.458 3.85718 10.2857C3.85718 8.12612 4.71508 6.05495 6.24217 4.52787C7.76925 3.00079 9.84041 2.14288 12 2.14288C14.1597 2.14288 16.2308 3.00079 17.7579 4.52787C19.285 6.05495 20.1429 8.12612 20.1429 10.2857C20.1429 13.458 18.1139 16.3482 16.1683 18.4019C15.1867 19.438 14.2066 20.2819 13.4724 20.8665C13.1049 21.1591 12.7981 21.3875 12.5824 21.5433C12.4746 21.6212 12.3894 21.681 12.3307 21.7217C12.3013 21.742 12.2786 21.7576 12.263 21.7682L12.2449 21.7804L12.2399 21.7837L12.2385 21.7847L12.238 21.785C12.2379 21.7851 12.2378 21.7852 12 21.4286ZM12 21.4286L12.2378 21.7852C12.0938 21.8812 11.9063 21.8812 11.7623 21.7852L12 21.4286ZM12 8.14288C10.8166 8.14288 9.85718 9.10227 9.85718 10.2857C9.85718 11.4692 10.8166 12.4286 12 12.4286C13.1835 12.4286 14.1429 11.4692 14.1429 10.2857C14.1429 9.10227 13.1835 8.14288 12 8.14288ZM9.00003 10.2857C9.00003 8.62889 10.3432 7.28574 12 7.28574C13.6569 7.28574 15 8.62889 15 10.2857C15 11.9426 13.6569 13.2857 12 13.2857C10.3432 13.2857 9.00003 11.9426 9.00003 10.2857Z" fill="black"/>
</svg>
