<svg viewBox="0 0 180 52" fill="none" xmlns="http://www.w3.org/2000/svg">
<g clip-path="url(#clip0)">
<path d="M3.58068 47.334C4.26271 47.334 4.77423 47.5589 5.22892 48.0086C5.68361 48.4583 5.91096 49.0205 5.91096 49.6389C5.91096 50.2572 5.68361 50.8194 5.22892 51.2691C4.77423 51.7189 4.20587 51.9437 3.58068 51.9437C2.95548 51.9437 2.38712 51.7189 1.93243 51.3253C1.47774 50.8756 1.25039 50.3697 1.25039 49.7513H0.341017V51.8875H0V47.3902H0.341017V49.4702H1.25039C1.30723 48.8518 1.53458 48.3459 1.98926 47.9524C2.44395 47.5589 2.95548 47.334 3.58068 47.334ZM3.58068 51.6626C4.14904 51.6626 4.60373 51.494 5.00158 51.1005C5.39943 50.707 5.56994 50.2572 5.56994 49.6951C5.56994 49.1329 5.39943 48.6832 5.00158 48.2897C4.60373 47.8961 4.14904 47.7275 3.58068 47.7275C3.01231 47.7275 2.55763 47.8961 2.15977 48.2897C1.76192 48.6832 1.59141 49.1329 1.59141 49.6951C1.59141 50.2572 1.76192 50.707 2.15977 51.1005C2.55763 51.494 3.01231 51.6626 3.58068 51.6626Z" fill="#006D68"/>
<path d="M12.8446 49.5826C13.072 49.6951 13.2425 49.8075 13.413 50.0324C13.5835 50.2572 13.6403 50.4821 13.6403 50.707C13.6403 51.0443 13.5267 51.3253 13.2993 51.5502C13.072 51.7751 12.7878 51.8875 12.4468 51.8875H10.4575V47.3902H12.2763C12.6173 47.3902 12.9015 47.5026 13.1288 47.7275C13.3562 47.9524 13.4698 48.2334 13.4698 48.5707C13.4698 48.7956 13.413 48.9643 13.2993 49.1329C13.1857 49.3578 13.0151 49.4702 12.8446 49.5826ZM12.2194 47.7275H10.7417V49.4702H12.2194C12.4468 49.4702 12.6741 49.3578 12.8446 49.1891C13.0151 49.0205 13.072 48.7956 13.072 48.5707C13.072 48.3459 13.0151 48.121 12.8446 47.9524C12.6741 47.8399 12.4468 47.7275 12.2194 47.7275ZM12.3899 51.6064C12.6173 51.6064 12.8446 51.494 13.0151 51.3253C13.1857 51.1567 13.2993 50.9318 13.2993 50.707C13.2993 50.4821 13.1857 50.2572 13.0151 50.0886C12.8446 49.9199 12.6173 49.8075 12.3899 49.8075H10.7417V51.6064H12.3899Z" fill="#006D68"/>
<path d="M18.415 51.6065H20.6884V51.9438H18.074V47.4465H20.6884V47.7838H18.415V49.4703H20.4611V49.8076H18.3582V51.6065H18.415Z" fill="#006D68"/>
<path d="M24.6667 51.9438V51.6627C25.0078 51.7189 25.2351 51.6065 25.4056 51.3816C25.5761 51.1567 25.633 50.707 25.633 50.0886V47.5027H28.5316V52H28.1906V47.7838H25.974V50.0324C25.974 50.7632 25.8603 51.2692 25.633 51.5502C25.4056 51.8313 25.1214 51.9438 24.6667 51.9438Z" fill="#006D68"/>
<path d="M36.2616 51.9438V48.0648L33.5334 51.9438H33.2493V47.4465H33.5903V51.3254L36.2616 47.4465H36.5458V51.9438H36.2616Z" fill="#006D68"/>
<path d="M42.8542 47.4465C43.252 47.4465 43.593 47.5589 43.8772 47.84C44.1614 48.1211 44.2751 48.4584 44.2751 48.8519C44.2751 49.2454 44.1614 49.5827 43.8772 49.8638C43.593 50.1448 43.252 50.2573 42.8542 50.2573H41.6606V52H41.3196V47.5027H42.8542V47.4465ZM42.8542 49.8638C43.1383 49.8638 43.4225 49.7513 43.6499 49.5827C43.8772 49.3578 43.934 49.133 43.934 48.7957C43.934 48.4584 43.8204 48.2335 43.6499 48.0086C43.4225 47.7838 43.1952 47.7276 42.8542 47.7276H41.6606V49.8638H42.8542Z" fill="#006D68"/>
<path d="M51.7211 47.4465H52.0621V51.9438H51.7211V49.8076H49.0498V51.9438H48.7087V47.4465H49.0498V49.4703H51.7211V47.4465Z" fill="#006D68"/>
<path d="M56.7795 51.9438V47.4465H57.1206V49.1892H58.3141C58.712 49.1892 59.053 49.3016 59.3372 49.5827C59.6213 49.8638 59.735 50.2011 59.735 50.5946C59.735 50.9881 59.6213 51.3254 59.3372 51.6065C59.053 51.8876 58.712 52 58.3141 52H56.7795V51.9438ZM57.1206 51.6065H58.3141C58.5983 51.6065 58.8825 51.494 59.1098 51.3254C59.3372 51.1005 59.394 50.8757 59.394 50.5384C59.394 50.2011 59.2803 49.9762 59.1098 49.7513C58.8825 49.5265 58.6551 49.4703 58.3141 49.4703H57.1206V51.6065ZM60.2465 51.9438V47.4465H60.5876V51.9438H60.2465Z" fill="#006D68"/>
<path d="M68.3168 51.9438V48.0648L65.6455 51.9438H65.3613V47.4465H65.7023V51.3254L68.3736 47.4465H68.6578V51.9438H68.3168ZM66.157 46.8843V46.6032H67.8053V46.8843H66.157Z" fill="#006D68"/>
<path d="M80.8207 51.9999C80.1387 51.9999 79.5703 51.7751 79.1156 51.3253C78.6609 50.8756 78.4336 50.3134 78.4336 49.6951C78.4336 49.0205 78.6609 48.5145 79.1156 48.0648C79.5703 47.6151 80.1387 47.3902 80.8207 47.3902C81.2185 47.3902 81.6164 47.5026 81.9574 47.6713C82.2984 47.8399 82.5826 48.121 82.7531 48.4583L82.4689 48.627C82.2984 48.3459 82.0711 48.121 81.7869 47.9524C81.5027 47.7837 81.1617 47.6713 80.8207 47.6713C80.2523 47.6713 79.7408 47.8399 79.343 48.2334C78.9451 48.627 78.7746 49.0767 78.7746 49.6389C78.7746 50.201 78.9451 50.6507 79.343 51.0443C79.7408 51.4378 80.1955 51.6064 80.8207 51.6064C81.1617 51.6064 81.5027 51.494 81.7869 51.3253C82.0711 51.1567 82.2984 50.9318 82.4689 50.6507L82.7531 50.8194C82.5826 51.1567 82.2984 51.4378 81.9574 51.6064C81.6164 51.7751 81.2754 51.9999 80.8207 51.9999Z" fill="#006D68"/>
<path d="M90.1991 51.9438L89.7444 50.8194H87.471L87.0163 51.9438H86.6753L88.4372 47.4465H88.7782L90.5401 51.9438H90.1991ZM87.5847 50.4822H89.6308L88.6077 47.84L87.5847 50.4822Z" fill="#006D68"/>
<path d="M94.3477 51.9438V51.6627C94.6887 51.7189 94.916 51.6065 95.0865 51.3816C95.257 51.1567 95.3139 50.707 95.3139 50.0886V47.5027H98.2125V52H97.8715V47.7838H95.6549V50.0324C95.6549 50.7632 95.5412 51.2692 95.3139 51.5502C95.0865 51.8313 94.8023 51.9438 94.3477 51.9438Z" fill="#006D68"/>
<path d="M106.682 51.3253C106.227 51.7751 105.659 51.9999 105.033 51.9999C104.408 51.9999 103.84 51.7751 103.385 51.3253C102.93 50.8756 102.703 50.3134 102.703 49.6951C102.703 49.0767 102.93 48.5145 103.385 48.0648C103.84 47.6151 104.408 47.3902 105.033 47.3902C105.659 47.3902 106.227 47.6151 106.682 48.0648C107.136 48.5145 107.364 49.0767 107.364 49.6951C107.364 50.3134 107.136 50.8756 106.682 51.3253ZM103.613 51.1005C104.01 51.494 104.465 51.6626 105.033 51.6626C105.602 51.6626 106.056 51.494 106.454 51.1005C106.852 50.707 107.023 50.2572 107.023 49.6951C107.023 49.1329 106.852 48.6832 106.454 48.2897C106.056 47.8961 105.602 47.7275 105.033 47.7275C104.465 47.7275 104.01 47.8961 103.613 48.2897C103.215 48.6832 103.044 49.1329 103.044 49.6951C103.044 50.2572 103.215 50.707 103.613 51.1005Z" fill="#006D68"/>
<path d="M114.866 47.4465H115.207V51.9438H114.866V49.8076H112.195V51.9438H111.854V47.4465H112.195V49.4703H114.866V47.4465Z" fill="#006D68"/>
<path d="M6.70647 10.4H6.7633L12.3332 0.224854H13.5268V12.0865H11.9354V2.4735H11.8786L6.47912 12.2551H6.19494L0.852346 2.36107H0.79551V12.0303H0.0566406V0.224854H1.19336L6.70647 10.4Z" fill="#006D68"/>
<path d="M20.063 8.54485L18.5853 12.0303H17.7896L22.848 0.16864H23.7005L29.2705 12.0303H27.6222L25.974 8.54485H20.063ZM22.9048 2.07999H22.848L20.404 7.75783H25.5761L22.9048 2.07999Z" fill="#006D68"/>
<path d="M44.5025 12.0303H42.7974L38.4779 2.07999H38.421L35.0677 10.4562C34.8403 11.0184 34.5562 11.4681 34.272 11.7492C33.9878 12.0303 33.6468 12.1989 33.3058 12.1989C33.0784 12.1989 32.8511 12.1989 32.6237 12.1427C32.3964 12.0865 32.169 12.0303 31.9985 11.974L32.4532 10.8497C32.5669 10.9059 32.6806 10.9622 32.8511 11.0746C32.9647 11.1308 33.1353 11.187 33.3058 11.187C33.7036 11.187 33.931 11.0184 34.1583 10.7373C34.3288 10.4562 34.4993 10.0065 34.7267 9.50053L38.421 0.16864H39.3872L44.5025 12.0303Z" fill="#006D68"/>
<path d="M49.5044 8.54486L48.0267 12.0303H47.231L52.2894 0.224854H53.1419L58.7118 12.0865H57.0636L55.4153 8.60107H49.5044V8.54486ZM52.403 2.07999H52.2894L49.8454 7.75783H55.0743L52.403 2.07999Z" fill="#006D68"/>
<path d="M66.8963 4.83459H67.01L70.6475 0.168643H71.5569L67.4647 5.45297L72.6368 11.974H70.7044L66.5553 6.68972H66.4985L62.4063 11.974H61.3833L65.987 6.07135L61.3264 0.112427H63.2588L66.8963 4.83459Z" fill="#006D68"/>
<path d="M85.3112 0.224854H86.8458V12.0865H85.3112V1.46161L78.2067 12.0303H76.6721V0.224854H78.2067V10.6811L85.3112 0.224854Z" fill="#006D68"/>
<path d="M95.5983 12.0303V1.12431H90.9946V0.224854H101.737V1.12431H97.1329V12.0303H95.5983Z" fill="#006D68"/>
<path d="M104.977 4.10378C105.204 3.37297 105.602 2.69838 106.113 2.13622C106.625 1.51784 107.307 1.01189 108.103 0.618378C108.898 0.224865 109.865 0 111.001 0C112.138 0 113.104 0.224865 113.957 0.618378C114.809 1.01189 115.491 1.51784 116.06 2.13622C116.628 2.75459 117.026 3.42919 117.253 4.10378C117.537 4.83459 117.651 5.50919 117.651 6.12757C117.651 6.52108 117.594 6.97081 117.481 7.42054C117.367 7.87027 117.196 8.32 116.969 8.82595C116.742 9.27568 116.458 9.72541 116.06 10.1189C115.719 10.5124 115.264 10.9059 114.753 11.187C114.241 11.5243 113.673 11.7492 113.047 11.9178C112.422 12.0865 111.74 12.1989 110.945 12.1989C109.808 12.1989 108.842 11.9741 108.046 11.5805C107.25 11.187 106.568 10.6811 106.057 10.0627C105.545 9.44432 105.147 8.76973 104.92 8.09513C104.693 7.36432 104.579 6.68973 104.579 6.07135C104.636 5.50919 104.749 4.77838 104.977 4.10378ZM106.682 8.32C106.909 8.99459 107.25 9.55676 107.705 10.0065C108.16 10.4562 108.614 10.8497 109.239 11.1308C109.808 11.4119 110.433 11.5243 111.115 11.5243C111.797 11.5243 112.422 11.4119 113.047 11.1308C113.673 10.8497 114.184 10.5124 114.639 10.0065C115.094 9.55676 115.435 8.93838 115.719 8.32C116.003 7.64541 116.117 6.91459 116.117 6.12757C116.117 5.34054 116.003 4.60973 115.719 3.93514C115.435 3.26054 115.094 2.69838 114.639 2.24865C114.184 1.79892 113.673 1.40541 113.047 1.12432C112.422 0.843243 111.797 0.730811 111.115 0.730811C110.433 0.730811 109.808 0.843243 109.239 1.12432C108.671 1.40541 108.16 1.7427 107.705 2.24865C107.25 2.75459 106.966 3.31676 106.682 3.93514C106.454 4.60973 106.341 5.34054 106.341 6.12757C106.284 6.91459 106.454 7.64541 106.682 8.32Z" fill="#006D68"/>
<path d="M122.311 0.224854H126.574C127.142 0.224854 127.711 0.337286 128.109 0.505935C128.563 0.674583 128.904 0.899448 129.188 1.18053C129.473 1.46161 129.7 1.74269 129.814 2.07999C129.927 2.41729 130.041 2.75458 130.041 3.03567C130.041 3.37296 129.984 3.71026 129.814 4.04756C129.643 4.38485 129.416 4.66594 129.188 4.8908C128.904 5.11567 128.62 5.34053 128.279 5.50918C127.938 5.67783 127.54 5.73404 127.142 5.73404V5.79026C127.37 5.79026 127.711 5.84648 128.109 5.90269C128.506 5.95891 128.904 6.12756 129.302 6.29621C129.7 6.52107 130.041 6.80215 130.325 7.19567C130.609 7.58918 130.78 8.09513 130.78 8.7135C130.78 9.10702 130.723 9.50053 130.552 9.95026C130.382 10.3438 130.155 10.6811 129.87 11.0184C129.529 11.3557 129.132 11.5805 128.62 11.8054C128.109 12.0303 127.427 12.0865 126.688 12.0865H122.368V0.224854H122.311ZM125.949 5.39675C126.29 5.39675 126.631 5.34053 126.915 5.2281C127.199 5.11567 127.483 4.94702 127.711 4.77837C127.938 4.60972 128.109 4.32864 128.279 4.04756C128.393 3.76648 128.45 3.48539 128.45 3.1481C128.45 2.86702 128.393 2.64215 128.336 2.36107C128.222 2.07999 128.109 1.85512 127.881 1.68648C127.654 1.46161 127.427 1.29296 127.086 1.18053C126.744 1.0681 126.403 1.01188 125.949 1.01188H123.903V5.45296H125.949V5.39675ZM126.403 11.2995C126.744 11.2995 127.142 11.2432 127.427 11.1308C127.768 11.0184 128.052 10.8497 128.279 10.6249C128.506 10.4 128.734 10.1751 128.847 9.83783C129.018 9.55675 129.075 9.16323 129.075 8.76972C129.075 8.43242 129.018 8.03891 128.904 7.75783C128.791 7.42053 128.563 7.13945 128.279 6.91459C127.995 6.68972 127.654 6.46485 127.256 6.29621C126.858 6.12756 126.347 6.07134 125.778 6.07134H123.903V11.2432H126.403V11.2995Z" fill="#006D68"/>
<path d="M135.781 8.54485L134.304 12.0303H133.508L138.566 0.16864H139.419L144.989 12.0303H143.34L141.692 8.54485H135.781ZM138.623 2.07999H138.566L136.122 7.75783H141.351L138.623 2.07999Z" fill="#006D68"/>
<path d="M157.436 0.224801V12.0864H155.902V6.85831H155.163C154.822 6.85831 154.595 6.91453 154.367 6.97075C154.14 7.02696 153.969 7.1394 153.799 7.25183C153.628 7.36426 153.458 7.58913 153.344 7.75777C153.174 7.98264 153.003 8.26372 152.833 8.5448L151.469 10.5124C151.298 10.7935 151.128 11.0183 150.957 11.2432C150.787 11.468 150.616 11.6367 150.446 11.8053C150.275 11.974 150.048 12.0864 149.763 12.1426C149.536 12.2551 149.252 12.2551 148.911 12.2551C148.684 12.2551 148.456 12.2551 148.286 12.1989C148.115 12.1989 147.945 12.1426 147.831 12.0302V11.4118C147.888 11.4118 147.945 11.4118 148.002 11.4118C148.058 11.4118 148.115 11.4118 148.172 11.4118C148.399 11.4118 148.627 11.3556 148.797 11.2994C148.968 11.2432 149.138 11.1307 149.309 11.0183C149.479 10.9059 149.65 10.7372 149.763 10.5686C149.934 10.3999 150.048 10.1751 150.218 9.95021C150.673 9.27561 151.071 8.71345 151.298 8.31994C151.582 7.92642 151.753 7.58913 151.923 7.36426C152.094 7.1394 152.207 6.97075 152.321 6.85831C152.435 6.74588 152.548 6.68967 152.662 6.57723L152.833 6.4648V6.40859C152.264 6.35237 151.81 6.23994 151.412 6.07129C151.014 5.84642 150.673 5.62156 150.446 5.28426C150.218 5.00318 149.991 4.66588 149.877 4.27237C149.763 3.93507 149.707 3.59777 149.707 3.20426C149.707 2.92318 149.763 2.58588 149.877 2.19237C149.991 1.85507 150.218 1.51777 150.502 1.18048C150.787 0.843179 151.184 0.618315 151.696 0.39345C152.207 0.168585 152.833 0.0561523 153.572 0.0561523H157.436V0.224801ZM155.902 0.955612H154.14C153.685 0.955612 153.287 1.01183 152.946 1.12426C152.605 1.23669 152.321 1.40534 152.037 1.63021C151.81 1.85507 151.582 2.13615 151.469 2.41723C151.355 2.69831 151.298 3.03561 151.298 3.42913C151.298 3.71021 151.355 4.0475 151.469 4.32859C151.582 4.66588 151.753 4.94696 152.037 5.17183C152.264 5.45291 152.548 5.62156 152.946 5.79021C153.287 5.95886 153.685 6.01507 154.14 6.01507H155.902V0.955612Z" fill="#006D68"/>
<path d="M15.3458 21.8682V33.7298H0V21.8682H1.53458V32.7741H6.87717V21.8682H8.41175V32.7741H13.7543V21.8682H15.3458Z" fill="#006D68"/>
<path d="M21.1997 21.8682H22.7343V28.5579L29.1568 21.8682H30.0093L25.6898 26.4779L31.0324 33.7298H29.2704L24.7235 27.546L22.7911 29.5698V33.7298H21.2565V21.8682H21.1997Z" fill="#006D68"/>
<path d="M36.0339 30.2444L34.5562 33.7298H33.7605L38.8189 21.8682H39.6715L45.2414 33.7298H43.5931L41.9449 30.2444H36.0339ZM38.9326 23.7795H38.8757L36.375 29.4573H41.6039L38.9326 23.7795Z" fill="#006D68"/>
<path d="M52.403 33.7298V22.8238H47.7993V21.8682H58.5413V22.8238H53.9945V33.7298H52.403Z" fill="#006D68"/>
<path d="M67.2375 28.7265H67.2943L70.4771 21.8681H71.3865L66.4986 32.3805C66.3281 32.7178 66.1576 32.9427 65.9871 33.1676C65.8166 33.3924 65.6461 33.5049 65.4755 33.6173C65.305 33.7297 65.1345 33.7859 64.9072 33.8422C64.7367 33.8984 64.5662 33.8984 64.3957 33.8984C63.9978 33.8984 63.6568 33.8422 63.3158 33.7297C62.9748 33.6173 62.7474 33.5049 62.6337 33.3362L63.3726 31.7622C63.5431 31.9308 63.7136 32.1557 63.941 32.3243C64.1683 32.493 64.3957 32.6054 64.6798 32.6054C65.0209 32.6054 65.305 32.493 65.4755 32.3243C65.6461 32.1557 65.7597 31.9308 65.8734 31.7059L66.4986 30.413L61.156 21.8119H62.9748L67.2375 28.7265Z" fill="#006D68"/>
<path d="M86.6177 33.7298H84.9127L80.5931 23.7795H80.5363L77.1829 32.1557C76.9556 32.7179 76.6714 33.1676 76.3872 33.4487C76.103 33.7298 75.762 33.8984 75.421 33.8984C75.1937 33.8984 74.9663 33.8984 74.739 33.8422C74.5116 33.786 74.2843 33.7298 74.1138 33.6736L74.5685 32.5492C74.6821 32.6055 74.7958 32.6617 74.9663 32.7741C75.08 32.8303 75.2505 32.8865 75.421 32.8865C75.8189 32.8865 76.0462 32.7179 76.2735 32.4368C76.4441 32.1557 76.6146 31.706 76.8419 31.2001L80.5363 21.8682H81.5025L86.6177 33.7298Z" fill="#006D68"/>
<path d="M90.8809 21.8682H92.4154V28.5579L98.8379 21.8682H99.6905L95.3709 26.4779L100.714 33.7298H98.9516L94.4047 27.546L92.4723 29.5698V33.7298H90.9377V21.8682H90.8809Z" fill="#006D68"/>
<path d="M105.715 30.2444L104.237 33.7298H103.442L108.5 21.8682H109.353L114.923 33.7298H113.274L111.626 30.2444H105.715ZM108.614 23.7795H108.557L106.113 29.4573H111.342L108.614 23.7795Z" fill="#006D68"/>
<path d="M132.485 34.9665L133.394 33.1675H138.964L139.873 34.9665H132.485Z" fill="#BB9775"/>
<path d="M130.78 31.9308L133.28 31.1438H139.134L141.692 31.9308L139.362 32.6616H133.11L130.78 31.9308Z" fill="#BB9775"/>
<path d="M136.122 35.4724H132.485L136.122 41.094L139.76 35.4724H136.122Z" fill="#BB9775"/>
<path d="M139.532 33.1676L142.261 32.2681L143.511 33.5049L140.385 34.8541L139.532 33.1676Z" fill="#BB9775"/>
<path d="M132.826 33.1676L130.041 32.2681L128.791 33.5049L131.916 34.8541L132.826 33.1676Z" fill="#BB9775"/>
<path d="M140.385 35.36L143.284 34.1795L137.259 40.3633L140.385 35.36Z" fill="#BB9775"/>
<path d="M131.916 35.36L129.018 34.1233L135.042 40.3633L131.916 35.36Z" fill="#BB9775"/>
<path d="M127.029 30.8627C127.029 30.9189 126.972 30.9751 126.915 30.9751L125.039 31.3124L125.721 32.3805V32.4367C125.721 32.4929 125.665 32.5491 125.608 32.5491H125.551L124.471 31.8745L124.073 34.067C124.073 34.1232 124.016 34.1794 123.959 34.1794C123.903 34.1794 123.846 34.1232 123.846 34.067L123.505 31.9308L122.425 32.5491C122.368 32.5491 122.311 32.5491 122.311 32.5491C122.254 32.4929 122.254 32.4367 122.311 32.4367L122.993 31.3124L121.118 30.9751C121.061 30.9751 121.004 30.9189 121.004 30.8627C121.004 30.8064 121.061 30.7502 121.118 30.7502L123.05 30.4129L122.368 29.3448C122.368 29.2886 122.368 29.2324 122.368 29.2324C122.425 29.1762 122.482 29.1762 122.482 29.2324L123.562 29.907L123.903 27.7145C123.903 27.6583 123.959 27.6021 124.016 27.6021C124.073 27.6021 124.13 27.6583 124.13 27.7145L124.471 29.8508L125.551 29.1762C125.608 29.1762 125.665 29.1762 125.665 29.1762C125.721 29.2324 125.721 29.2886 125.665 29.2886L124.982 30.4129L126.858 30.7502C126.972 30.7502 127.029 30.8064 127.029 30.8627Z" fill="#BB9775"/>
<path d="M132.03 25.1286C132.03 25.1849 132.03 25.1849 131.974 25.1849L130.723 25.4097L131.178 26.1405V26.1968C131.178 26.253 131.121 26.253 131.121 26.253C131.121 26.253 131.121 26.253 131.064 26.253L130.382 25.8032L130.155 27.2086C130.155 27.2649 130.098 27.2649 130.098 27.2649C130.041 27.2649 130.041 27.2649 130.041 27.2086L129.814 25.8032L129.132 26.1968C129.132 26.1968 129.075 26.1968 129.018 26.1968C129.018 26.1968 129.018 26.1405 129.018 26.0843L129.473 25.3535L128.222 25.1286C128.166 25.1286 128.166 25.0724 128.166 25.0724C128.166 25.0162 128.166 25.0162 128.222 25.0162L129.473 24.7913L129.018 24.173C129.018 24.173 129.018 24.1168 129.018 24.0605C129.018 24.0605 129.075 24.0605 129.132 24.0605L129.814 24.5103L130.041 23.1049C130.041 23.0486 130.098 23.0486 130.098 23.0486C130.098 23.0486 130.155 23.0486 130.155 23.1049L130.382 24.5103L131.121 24.0605C131.121 24.0605 131.178 24.0605 131.235 24.0605C131.235 24.0605 131.235 24.1168 131.235 24.173L130.78 24.9038L131.974 25.1286C132.03 25.0724 132.03 25.1286 132.03 25.1286Z" fill="#BB9775"/>
<path d="M177.329 10.8498C177.044 11.0184 176.931 11.4119 176.703 11.5244C176.249 11.7492 175.68 11.693 175.226 11.8054C175.169 11.3557 174.998 10.6811 175.055 10.2876C175.112 10.0627 175.453 9.78165 175.567 9.613C175.68 9.38814 175.851 9.05084 175.851 8.82597C175.851 8.54489 175.737 8.09516 175.51 7.98273C175.055 7.8703 174.43 8.54489 174.146 8.82597C173.293 9.55678 172.895 10.2876 172.668 11.2995C172.554 11.7492 172.497 12.3114 172.27 12.7049C172.213 12.8173 172.043 13.0422 171.929 13.2108C171.759 13.3795 171.361 13.8854 171.247 13.9979C171.02 14.1665 170.792 14.4476 170.565 14.56C170.167 14.7287 169.713 14.6725 169.315 14.6725C168.86 14.6725 168.348 14.7849 168.007 14.8973C167.496 15.066 167.098 15.4595 166.473 15.6281C165.961 15.7968 165.109 15.9654 164.938 15.5157C164.825 15.1784 165.734 14.6162 166.018 14.3352C166.302 14.1103 166.7 13.4357 166.814 13.0984C166.643 12.6487 166.473 13.0422 166.302 13.2108C165.904 13.6044 165.62 13.8854 165.166 14.2789C165.166 14.0541 165.336 13.8292 165.507 13.5481C165.62 13.3795 165.961 12.986 165.791 12.7611C165.507 12.3676 165.222 13.0984 165.166 13.2671C164.995 13.6044 164.825 13.8854 164.597 13.9979C164.597 13.6606 164.938 13.2671 164.597 12.986C164.313 13.0422 164.256 13.4357 164.143 13.6606C163.972 13.8854 163.802 14.1665 163.574 14.3352C163.404 14.1665 163.517 13.773 163.29 13.773C163.063 13.773 163.12 14.2789 163.12 14.4476C163.12 14.7849 163.176 15.066 163.347 15.3471C163.461 15.5157 163.631 15.5719 163.745 15.7406C163.858 15.853 163.858 16.0217 163.972 16.1341C164.256 16.4152 165.166 16.3027 165.677 16.3589C166.359 16.4152 166.814 16.3589 167.496 16.3589C166.587 17.3146 163.972 17.7644 162.665 18.4389C160.846 19.3946 159.311 20.5752 158.232 21.8681C158.004 22.1492 157.834 22.4865 157.55 22.6552C157.436 21.9244 157.265 21.306 156.811 21.1935C156.129 20.9687 154.992 21.7557 154.537 22.0368C154.083 22.3179 153.287 22.599 153.116 22.3179C153.06 22.2054 153.06 22.0368 153.116 21.9244C153.173 21.4184 153.344 21.1935 153.628 20.6876C153.742 20.5189 154.196 20.0692 154.139 19.8444C153.969 19.3946 153.457 20.1254 153.344 20.2941C153.173 20.5752 152.946 20.9125 152.832 21.1935C152.719 21.4746 152.775 21.7557 152.491 21.8681C152.377 20.9687 152.662 20.2379 153.06 19.5633C153.116 19.4508 153.514 19.0573 153.344 18.8887C153.116 18.72 152.946 19.1135 152.832 19.2822C152.491 19.7319 152.264 20.1254 152.15 20.6314C152.093 20.9125 152.093 21.2498 151.809 21.4746C151.695 21.1373 151.752 20.9125 151.809 20.5752C151.866 20.4065 151.98 19.7881 151.582 19.7881C151.582 19.7881 151.411 20.1817 151.411 20.2941C151.354 20.5752 151.184 20.8562 151.184 21.0811C151.184 21.4184 151.354 21.8681 151.127 22.0368C150.786 21.7557 150.957 21.3622 150.672 21.4184C150.218 21.5308 150.672 22.7676 150.9 23.1049C151.013 23.2735 151.241 23.4422 151.354 23.6108C151.525 23.8357 151.639 24.0044 151.809 24.0606C152.662 24.3417 154.026 22.9925 154.935 23.0487C156.299 23.1611 155.731 24.8476 155.39 25.466C153.287 29.1762 151.525 33.2238 149.536 36.7654C148.683 38.2833 147.774 39.3514 146.808 40.1946C146.012 40.813 145.159 41.4314 144.307 41.9373C129.132 51.1006 118.787 34.9103 102.703 39.1265C102.532 39.1827 102.248 39.239 102.191 39.4076C102.134 39.52 102.305 39.6325 102.646 39.5763C106.568 38.8454 110.319 39.0141 114.07 40.2508C120.038 42.3308 124.528 44.5795 128.449 45.76C134.417 47.559 141.181 46.8281 146.467 43.5114C150.047 41.319 153.23 36.8217 155.901 33.4487C156.299 32.8865 156.754 32.3806 157.152 31.8184C157.777 30.9752 159.425 28.3892 160.448 28.1081C160.732 28.0519 161.471 28.2768 161.528 28.6141C161.585 28.839 161.301 29.2325 161.13 29.4573C160.505 30.1881 159.709 30.8065 159.198 31.5373C159.141 31.6498 159.084 31.7622 159.027 31.9308C158.914 32.0995 158.743 32.2681 158.743 32.4368C158.743 33.3925 159.539 32.999 160.05 33.0552C160.335 33.0552 160.619 33.28 161.017 33.3362C161.812 33.4487 162.892 32.8865 163.574 33.0552C163.972 33.1114 164.313 33.7298 164.597 33.28C164.427 32.7741 163.858 32.8865 163.631 32.5492C164.313 32.493 165.109 32.7741 165.677 33.1676C165.734 33.2238 166.189 33.6173 166.359 33.5049C166.587 33.28 166.018 32.9427 165.848 32.8303C165.62 32.6617 165.336 32.4368 165.052 32.3244C164.654 32.1557 164.086 32.0995 163.802 31.8746C164.484 31.706 165.109 31.8184 165.677 31.9871C165.904 32.0433 166.189 32.3806 166.473 32.1557C166.53 31.8746 166.189 31.7622 166.018 31.706C165.563 31.5373 165.109 31.3687 164.654 31.2562C164.427 31.2 164.086 31.3125 163.915 31.0876C164.029 30.5817 164.711 31.1438 164.825 30.7503C164.711 30.4692 164.313 30.4692 164.029 30.4692C163.574 30.4692 163.063 30.6379 162.608 30.8627C162.153 31.0876 161.755 31.3687 161.358 31.4249C161.528 31.0876 161.926 30.8627 162.21 30.5817C162.494 30.3006 162.778 30.0195 163.063 29.7384C163.176 29.626 163.29 29.5698 163.404 29.4573C164.143 28.7827 164.711 27.3773 163.745 26.3654C163.461 26.0844 162.949 26.0281 162.722 25.7471C165.166 23.7795 167.041 23.4422 169.201 22.0368C169.883 21.5871 170.679 20.9125 171.361 20.5189C171.247 20.9125 171.077 21.1935 170.906 21.5308C170.792 21.7557 170.451 22.2054 170.508 22.599C170.622 23.2173 171.247 23.1611 171.702 23.1049C172.043 23.0487 172.441 22.9362 172.839 22.7676C173.407 22.5427 173.975 22.0368 174.43 21.9244C174.998 21.8119 175.567 21.8119 176.021 21.7557C176.135 21.7557 176.703 21.6433 176.533 21.3622C176.419 21.0811 175.908 21.3622 175.851 21.1935C176.135 20.7438 177.272 20.6876 177.329 20.4627C177.215 19.9568 175.964 20.7438 175.68 20.5752C175.851 20.3503 176.078 20.2941 176.476 20.1254C176.647 20.0692 177.272 19.8444 177.215 19.6757C177.158 19.5071 176.533 19.6757 176.306 19.7881C175.908 19.9006 175.623 20.0692 175.339 20.1254C175.567 19.6757 176.249 19.3384 176.817 19.1135C176.988 19.0573 177.272 19.0011 177.215 18.72C176.874 18.4952 176.476 18.8325 176.192 18.9449C176.021 19.0011 175.908 19.0011 175.794 19.0573C174.998 19.4508 174.714 20.0692 174.203 20.5189C173.748 20.8562 173.236 21.0249 172.725 21.306C173.293 20.6876 173.862 19.9006 174.203 19.1135C174.373 18.72 174.657 18.3827 174.6 17.933C174.544 17.5957 174.259 17.146 174.203 16.9211C174.146 16.6962 173.975 16.3027 174.089 16.0779C174.146 15.9092 174.373 15.5157 174.544 15.3471C174.771 15.1222 175.055 14.9535 175.282 14.7849C175.908 14.4476 176.59 14.0541 177.158 13.5481C177.954 12.8735 178.92 12.1427 179.034 11.1871C178.92 10.2314 177.726 10.6249 177.329 10.8498Z" fill="#BB9775"/>
<path d="M176.817 7.02701C176.419 7.25188 176.021 7.47674 175.85 7.75782C176.021 7.92647 176.191 7.92647 176.305 8.09512C176.476 8.31999 176.646 8.76972 176.817 9.0508C176.93 8.76972 177.101 8.60107 177.271 8.3762C177.612 8.0389 178.067 7.81404 178.522 7.64539C178.465 8.3762 178.067 9.16323 177.442 9.66918C177.783 9.83782 178.124 9.72539 178.465 9.89404C178.692 10.0065 178.749 10.2313 179.033 10.3438C179.374 10.1189 179.431 9.61296 179.601 9.16323C179.829 8.54485 179.999 7.92647 179.999 7.19566C179.999 5.28431 177.84 6.52107 176.817 7.02701Z" fill="#BB9775"/>
</g>
<defs>
<clipPath id="clip0">
<rect width="180" height="52" fill="white"/>
</clipPath>
</defs>
</svg>
