<svg width="24" height="24" viewBox="0 0 24 24" fill="none" xmlns="http://www.w3.org/2000/svg">
<path fill-rule="evenodd" clip-rule="evenodd" d="M7.28566 5.57144C6.33889 5.57144 5.57138 6.33895 5.57138 7.28572C5.57138 8.2325 6.33889 9.00001 7.28566 9.00001C8.23244 9.00001 8.99995 8.2325 8.99995 7.28572C8.99995 6.33895 8.23244 5.57144 7.28566 5.57144ZM4.71423 7.28572C4.71423 5.86556 5.8655 4.71429 7.28566 4.71429C8.70582 4.71429 9.85709 5.86556 9.85709 7.28572C9.85709 8.70588 8.70582 9.85715 7.28566 9.85715C5.8655 9.85715 4.71423 8.70588 4.71423 7.28572ZM18.303 5.69696C18.4704 5.86433 18.4704 6.13569 18.303 6.30305L6.30299 18.3031C6.13563 18.4704 5.86427 18.4704 5.6969 18.3031C5.52953 18.1357 5.52953 17.8643 5.6969 17.697L17.6969 5.69696C17.8643 5.5296 18.1356 5.5296 18.303 5.69696ZM16.7142 15C15.7675 15 14.9999 15.7675 14.9999 16.7143C14.9999 17.6611 15.7675 18.4286 16.7142 18.4286C17.661 18.4286 18.4285 17.6611 18.4285 16.7143C18.4285 15.7675 17.661 15 16.7142 15ZM14.1428 16.7143C14.1428 15.2941 15.2941 14.1429 16.7142 14.1429C18.1344 14.1429 19.2857 15.2941 19.2857 16.7143C19.2857 18.1345 18.1344 19.2857 16.7142 19.2857C15.2941 19.2857 14.1428 18.1345 14.1428 16.7143Z" fill="white"/>
</svg>
