<svg width="24" height="24" viewBox="0 0 24 24" fill="none" xmlns="http://www.w3.org/2000/svg">
<path fill-rule="evenodd" clip-rule="evenodd" d="M16.2857 4.28573H7.71429C7.2409 4.28573 6.85714 4.66949 6.85714 5.14287V18.8572C6.85714 19.3305 7.2409 19.7143 7.71429 19.7143H16.2857C16.7591 19.7143 17.1429 19.3305 17.1429 18.8572V5.14287C17.1429 4.66949 16.7591 4.28573 16.2857 4.28573ZM13.7143 17.1429C13.7143 18.0896 12.9468 18.8572 12 18.8572C11.0532 18.8572 10.2857 18.0896 10.2857 17.1429C10.2857 16.1961 11.0532 15.4286 12 15.4286C12.9468 15.4286 13.7143 16.1961 13.7143 17.1429ZM7.71429 3.42859H16.2857C17.2325 3.42859 18 4.1961 18 5.14287V18.8572C18 19.8039 17.2325 20.5714 16.2857 20.5714H7.71429C6.76751 20.5714 6 19.8039 6 18.8572V5.14287C6 4.1961 6.76751 3.42859 7.71429 3.42859Z" fill="black"/>
</svg>
