<svg width="24" height="24" viewBox="0 0 24 24" fill="none" xmlns="http://www.w3.org/2000/svg">
<path fill-rule="evenodd" clip-rule="evenodd" d="M11.1429 4.71426C7.59249 4.71426 4.71432 7.59243 4.71432 11.1428C4.71432 14.6932 7.59249 17.5714 11.1429 17.5714C12.8887 17.5714 14.4719 16.8755 15.6304 15.746C15.6455 15.7236 15.6629 15.7024 15.6827 15.6826C15.7025 15.6629 15.7237 15.6454 15.746 15.6303C16.8756 14.4719 17.5715 12.8886 17.5715 11.1428C17.5715 7.59243 14.6933 4.71426 11.1429 4.71426ZM16.5888 15.9827C17.7333 14.6958 18.4286 13.0005 18.4286 11.1428C18.4286 7.11904 15.1667 3.85712 11.1429 3.85712C7.1191 3.85712 3.85718 7.11904 3.85718 11.1428C3.85718 15.1666 7.1191 18.4285 11.1429 18.4285C13.0006 18.4285 14.6959 17.7333 15.9828 16.5888L19.4113 20.0173C19.5786 20.1847 19.85 20.1847 20.0174 20.0173C20.1847 19.8499 20.1847 19.5786 20.0174 19.4112L16.5888 15.9827Z" fill="black" fill-opacity="0.6"/>
</svg>
