<svg width="25" height="24" viewBox="0 0 25 24" fill="none" xmlns="http://www.w3.org/2000/svg">
<path fill-rule="evenodd" clip-rule="evenodd" d="M7.01432 3.17143C7.09526 3.06351 7.22228 3 7.35718 3H17.6429C17.7778 3 17.9048 3.06351 17.9857 3.17143L20.5572 6.6C20.6128 6.67418 20.6429 6.76441 20.6429 6.85714V18.8571C20.6429 19.4255 20.4171 19.9705 20.0153 20.3724C19.6134 20.7742 19.0684 21 18.5 21H6.50003C5.93171 21 5.38667 20.7742 4.98481 20.3724C4.58294 19.9705 4.35718 19.4255 4.35718 18.8571V6.85714C4.35718 6.76441 4.38725 6.67418 4.44289 6.6L7.01432 3.17143ZM7.57146 3.85714L5.64289 6.42857H19.3572L17.4286 3.85714H7.57146ZM19.7857 7.28571H5.21432V18.8571C5.21432 19.1981 5.34978 19.5252 5.5909 19.7663C5.83202 20.0074 6.15904 20.1429 6.50003 20.1429H18.5C18.841 20.1429 19.1681 20.0074 19.4092 19.7663C19.6503 19.5252 19.7857 19.1981 19.7857 18.8571V7.28571ZM9.07146 9.85714C9.30816 9.85714 9.50003 10.049 9.50003 10.2857C9.50003 11.0814 9.8161 11.8444 10.3787 12.407C10.9413 12.9696 11.7044 13.2857 12.5 13.2857C13.2957 13.2857 14.0587 12.9696 14.6214 12.407C15.184 11.8444 15.5 11.0814 15.5 10.2857C15.5 10.049 15.6919 9.85714 15.9286 9.85714C16.1653 9.85714 16.3572 10.049 16.3572 10.2857C16.3572 11.3087 15.9508 12.2898 15.2274 13.0131C14.5041 13.7365 13.523 14.1429 12.5 14.1429C11.4771 14.1429 10.496 13.7365 9.77262 13.0131C9.04927 12.2898 8.64289 11.3087 8.64289 10.2857C8.64289 10.049 8.83477 9.85714 9.07146 9.85714Z" fill="white"/>
</svg>
