<svg width="28" height="28" viewBox="0 0 28 28" fill="none" xmlns="http://www.w3.org/2000/svg">
<path fill-rule="evenodd" clip-rule="evenodd" d="M4.5 8C4.5 7.72386 4.72386 7.5 5 7.5H23C23.2761 7.5 23.5 7.72386 23.5 8C23.5 8.27614 23.2761 8.5 23 8.5H5C4.72386 8.5 4.5 8.27614 4.5 8ZM4.5 14C4.5 13.7239 4.72386 13.5 5 13.5H23C23.2761 13.5 23.5 13.7239 23.5 14C23.5 14.2761 23.2761 14.5 23 14.5H5C4.72386 14.5 4.5 14.2761 4.5 14ZM4.5 20C4.5 19.7239 4.72386 19.5 5 19.5H23C23.2761 19.5 23.5 19.7239 23.5 20C23.5 20.2761 23.2761 20.5 23 20.5H5C4.72386 20.5 4.5 20.2761 4.5 20Z" fill="black"/>
</svg>
