<svg width="28" height="28" viewBox="0 0 28 28" fill="none" xmlns="http://www.w3.org/2000/svg">
<path fill-rule="evenodd" clip-rule="evenodd" d="M14 4.5C14.1939 4.5 14.3702 4.61205 14.4526 4.78753L17.1204 10.4706L23.076 11.3859C23.2612 11.4144 23.4149 11.544 23.4742 11.7217C23.5336 11.8994 23.4887 12.0954 23.3578 12.2294L19.0341 16.6576L20.0555 22.9195C20.0863 23.1085 20.0065 23.2985 19.8499 23.4088C19.6934 23.519 19.4876 23.5302 19.3201 23.4376L14 20.4956L8.67997 23.4376C8.5124 23.5302 8.30662 23.519 8.15008 23.4088C7.99353 23.2985 7.91371 23.1085 7.94453 22.9195L8.96589 16.6576L4.64226 12.2294C4.51137 12.0954 4.46641 11.8994 4.52578 11.7217C4.58514 11.544 4.73887 11.4144 4.92406 11.3859L10.8796 10.4706L13.5474 4.78753C13.6298 4.61205 13.8062 4.5 14 4.5ZM14 6.17665L11.6716 11.1368C11.6008 11.2875 11.4596 11.3932 11.295 11.4185L6.03711 12.2266L9.85776 16.1397C9.96867 16.2532 10.019 16.4128 9.99349 16.5694L9.09728 22.0641L13.758 19.4867C13.9086 19.4035 14.0914 19.4035 14.242 19.4867L18.9028 22.0641L18.0065 16.5694C17.981 16.4128 18.0314 16.2532 18.1423 16.1397L21.9629 12.2266L16.7051 11.4185C16.5404 11.3932 16.3992 11.2875 16.3284 11.1368L14 6.17665Z" fill="var(--fill-svg, #000000)" />
</svg>
