<svg width="24" height="24" viewBox="0 0 24 24" fill="none" xmlns="http://www.w3.org/2000/svg">
<path fill-rule="evenodd" clip-rule="evenodd" d="M12.7129 17.8967C12.7129 17.8967 13.0979 17.8547 13.2951 17.6468C13.4756 17.4563 13.4694 17.0968 13.4694 17.0968C13.4694 17.0968 13.4454 15.4181 14.2394 15.1703C15.022 14.9265 16.0268 16.7937 17.0931 17.5116C17.8987 18.0545 18.5101 17.9357 18.5101 17.9357L21.3597 17.8967C21.3597 17.8967 22.8497 17.8066 22.1433 16.6564C22.0848 16.5622 21.7311 15.8053 20.0251 14.2505C18.2378 12.6231 18.4777 12.8863 20.6293 10.0707C21.9398 8.3562 22.4636 7.30946 22.2998 6.86188C22.1443 6.43376 21.1802 6.54744 21.1802 6.54744L17.9727 6.5669C17.9727 6.5669 17.7348 6.53515 17.5585 6.6386C17.3863 6.74 17.2747 6.97659 17.2747 6.97659C17.2747 6.97659 16.7676 8.30294 16.0904 9.43162C14.662 11.8119 14.0912 11.9379 13.8575 11.7904C13.3139 11.4452 13.4495 10.4056 13.4495 9.66719C13.4495 7.35964 13.8064 6.39791 12.7557 6.14902C12.4072 6.06606 12.1505 6.01178 11.2584 6.00256C10.1137 5.9913 9.14545 6.00666 8.59662 6.26988C8.23142 6.44502 7.9497 6.83627 8.12186 6.8588C8.33368 6.88646 8.81365 6.98581 9.06824 7.32584C9.39692 7.76523 9.38544 8.75052 9.38544 8.75052C9.38544 8.75052 9.5743 11.4667 8.94407 11.8037C8.5121 12.0352 7.91944 11.563 6.64543 9.40295C5.9933 8.2968 5.50081 7.07389 5.50081 7.07389C5.50081 7.07389 5.40586 6.84549 5.23578 6.72258C5.03023 6.57407 4.74329 6.52798 4.74329 6.52798L1.69548 6.54744C1.69548 6.54744 1.23742 6.55973 1.06943 6.75536C0.920219 6.92845 1.05795 7.28795 1.05795 7.28795C1.05795 7.28795 3.44424 12.7685 6.14668 15.5308C8.62479 18.0627 11.4378 17.8967 11.4378 17.8967H12.7129Z" fill="white"/>
</svg>
