<svg width="28" height="28" viewBox="0 0 28 28" fill="none" xmlns="http://www.w3.org/2000/svg">
<path fill-rule="evenodd" clip-rule="evenodd" d="M4.5 8C4.5 7.72386 4.72386 7.5 5 7.5L14 7.5C14.2761 7.5 14.5 7.72386 14.5 8C14.5 8.27614 14.2761 8.5 14 8.5L5 8.5C4.72386 8.5 4.5 8.27614 4.5 8ZM4.5 14C4.5 13.7239 4.72386 13.5 5 13.5L9.5 13.5L9.5 12C9.5 11.7239 9.72386 11.5 10 11.5C10.2761 11.5 10.5 11.7239 10.5 12L10.5 16C10.5 16.2761 10.2761 16.5 10 16.5C9.72386 16.5 9.5 16.2761 9.5 16L9.5 14.5L5 14.5C4.72386 14.5 4.5 14.2761 4.5 14ZM4.5 20C4.5 19.7239 4.72386 19.5 5 19.5L12 19.5C12.2761 19.5 12.5 19.7239 12.5 20C12.5 20.2761 12.2761 20.5 12 20.5L5 20.5C4.72386 20.5 4.5 20.2761 4.5 20ZM13.5 14C13.5 13.7239 13.7239 13.5 14 13.5L23 13.5C23.2761 13.5 23.5 13.7239 23.5 14C23.5 14.2761 23.2761 14.5 23 14.5L14 14.5C13.7239 14.5 13.5 14.2761 13.5 14ZM16 22.5C15.7239 22.5 15.5 22.2761 15.5 22L15.5 18C15.5 17.7239 15.7239 17.5 16 17.5C16.2761 17.5 16.5 17.7239 16.5 18L16.5 19.5L23 19.5C23.2761 19.5 23.5 19.7239 23.5 20C23.5 20.2761 23.2761 20.5 23 20.5L16.5 20.5L16.5 22C16.5 22.2761 16.2761 22.5 16 22.5ZM18 10.5C17.7239 10.5 17.5 10.2761 17.5 10L17.5 6C17.5 5.72386 17.7239 5.5 18 5.5C18.2761 5.5 18.5 5.72386 18.5 6L18.5 7.5L23 7.5C23.2761 7.5 23.5 7.72386 23.5 8C23.5 8.27614 23.2761 8.5 23 8.5L18.5 8.5L18.5 10C18.5 10.2761 18.2761 10.5 18 10.5Z" fill="black"/>
</svg>
